<svg xmlns="http://www.w3.org/2000/svg" xmlns:xlink="http://www.w3.org/1999/xlink" width="3127" zoomAndPan="magnify" viewBox="0 0 2345.25 2345.250009" height="3127" preserveAspectRatio="xMidYMid meet" version="1.0"><defs><g/><clipPath id="2045f8638a"><path d="M 0 0 L 2344.5 0 L 2344.5 2344.5 L 0 2344.5 Z M 0 0 " clip-rule="nonzero"/></clipPath><radialGradient gradientTransform="matrix(1, 0, 0, 1, 0, 0.000104218)" gradientUnits="userSpaceOnUse" r="3315.624254" cx="0" id="a90560dbce" cy="0" fx="0" fy="0"><stop stop-opacity="1" stop-color="rgb(15.9729%, 15.9729%, 15.9729%)" offset="0"/><stop stop-opacity="1" stop-color="rgb(15.753174%, 15.753174%, 15.753174%)" offset="0.015625"/><stop stop-opacity="1" stop-color="rgb(15.563965%, 15.563965%, 15.563965%)" offset="0.0273438"/><stop stop-opacity="1" stop-color="rgb(15.376282%, 15.376282%, 15.376282%)" offset="0.0390625"/><stop stop-opacity="1" stop-color="rgb(15.187073%, 15.187073%, 15.187073%)" offset="0.0507812"/><stop stop-opacity="1" stop-color="rgb(14.997864%, 14.997864%, 14.997864%)" offset="0.0625"/><stop stop-opacity="1" stop-color="rgb(14.810181%, 14.810181%, 14.810181%)" offset="0.0742188"/><stop stop-opacity="1" stop-color="rgb(14.620972%, 14.620972%, 14.620972%)" offset="0.0859375"/><stop stop-opacity="1" stop-color="rgb(14.431763%, 14.431763%, 14.431763%)" offset="0.0976562"/><stop stop-opacity="1" stop-color="rgb(14.24408%, 14.24408%, 14.24408%)" offset="0.109375"/><stop stop-opacity="1" stop-color="rgb(14.054871%, 14.054871%, 14.054871%)" offset="0.121094"/><stop stop-opacity="1" stop-color="rgb(13.771057%, 13.771057%, 13.771057%)" offset="0.132812"/><stop stop-opacity="1" stop-color="rgb(13.394165%, 13.394165%, 13.394165%)" offset="0.15625"/><stop stop-opacity="1" stop-color="rgb(13.017273%, 13.017273%, 13.017273%)" offset="0.179688"/><stop stop-opacity="1" stop-color="rgb(12.640381%, 12.640381%, 12.640381%)" offset="0.203125"/><stop stop-opacity="1" stop-color="rgb(12.261963%, 12.261963%, 12.261963%)" offset="0.226562"/><stop stop-opacity="1" stop-color="rgb(11.885071%, 11.885071%, 11.885071%)" offset="0.25"/><stop stop-opacity="1" stop-color="rgb(11.540222%, 11.540222%, 11.540222%)" offset="0.273438"/><stop stop-opacity="1" stop-color="rgb(11.225891%, 11.225891%, 11.225891%)" offset="0.292969"/><stop stop-opacity="1" stop-color="rgb(10.910034%, 10.910034%, 10.910034%)" offset="0.3125"/><stop stop-opacity="1" stop-color="rgb(10.595703%, 10.595703%, 10.595703%)" offset="0.332031"/><stop stop-opacity="1" stop-color="rgb(10.281372%, 10.281372%, 10.281372%)" offset="0.351562"/><stop stop-opacity="1" stop-color="rgb(9.967041%, 9.967041%, 9.967041%)" offset="0.371094"/><stop stop-opacity="1" stop-color="rgb(9.683228%, 9.683228%, 9.683228%)" offset="0.390625"/><stop stop-opacity="1" stop-color="rgb(9.431458%, 9.431458%, 9.431458%)" offset="0.40625"/><stop stop-opacity="1" stop-color="rgb(9.181213%, 9.181213%, 9.181213%)" offset="0.421875"/><stop stop-opacity="1" stop-color="rgb(8.929443%, 8.929443%, 8.929443%)" offset="0.4375"/><stop stop-opacity="1" stop-color="rgb(8.677673%, 8.677673%, 8.677673%)" offset="0.453125"/><stop stop-opacity="1" stop-color="rgb(8.425903%, 8.425903%, 8.425903%)" offset="0.46875"/><stop stop-opacity="1" stop-color="rgb(8.174133%, 8.174133%, 8.174133%)" offset="0.484375"/><stop stop-opacity="1" stop-color="rgb(7.922363%, 7.922363%, 7.922363%)" offset="0.5"/><stop stop-opacity="1" stop-color="rgb(7.702637%, 7.702637%, 7.702637%)" offset="0.515625"/><stop stop-opacity="1" stop-color="rgb(7.514954%, 7.514954%, 7.514954%)" offset="0.527344"/><stop stop-opacity="1" stop-color="rgb(7.325745%, 7.325745%, 7.325745%)" offset="0.539062"/><stop stop-opacity="1" stop-color="rgb(7.136536%, 7.136536%, 7.136536%)" offset="0.550781"/><stop stop-opacity="1" stop-color="rgb(6.948853%, 6.948853%, 6.948853%)" offset="0.5625"/><stop stop-opacity="1" stop-color="rgb(6.665039%, 6.665039%, 6.665039%)" offset="0.574219"/><stop stop-opacity="1" stop-color="rgb(6.288147%, 6.288147%, 6.288147%)" offset="0.597656"/><stop stop-opacity="1" stop-color="rgb(5.909729%, 5.909729%, 5.909729%)" offset="0.621094"/><stop stop-opacity="1" stop-color="rgb(5.56488%, 5.56488%, 5.56488%)" offset="0.644531"/><stop stop-opacity="1" stop-color="rgb(5.250549%, 5.250549%, 5.250549%)" offset="0.664062"/><stop stop-opacity="1" stop-color="rgb(4.936218%, 4.936218%, 4.936218%)" offset="0.683594"/><stop stop-opacity="1" stop-color="rgb(4.652405%, 4.652405%, 4.652405%)" offset="0.703125"/><stop stop-opacity="1" stop-color="rgb(4.400635%, 4.400635%, 4.400635%)" offset="0.71875"/><stop stop-opacity="1" stop-color="rgb(4.148865%, 4.148865%, 4.148865%)" offset="0.734375"/><stop stop-opacity="1" stop-color="rgb(3.897095%, 3.897095%, 3.897095%)" offset="0.75"/><stop stop-opacity="1" stop-color="rgb(3.677368%, 3.677368%, 3.677368%)" offset="0.765625"/><stop stop-opacity="1" stop-color="rgb(3.489685%, 3.489685%, 3.489685%)" offset="0.777344"/><stop stop-opacity="1" stop-color="rgb(3.205872%, 3.205872%, 3.205872%)" offset="0.789062"/><stop stop-opacity="1" stop-color="rgb(2.828979%, 2.828979%, 2.828979%)" offset="0.8125"/><stop stop-opacity="1" stop-color="rgb(2.482605%, 2.482605%, 2.482605%)" offset="0.835938"/><stop stop-opacity="1" stop-color="rgb(2.200317%, 2.200317%, 2.200317%)" offset="0.855469"/><stop stop-opacity="1" stop-color="rgb(1.948547%, 1.948547%, 1.948547%)" offset="0.871094"/><stop stop-opacity="1" stop-color="rgb(1.728821%, 1.728821%, 1.728821%)" offset="0.886719"/><stop stop-opacity="1" stop-color="rgb(1.445007%, 1.445007%, 1.445007%)" offset="0.898438"/><stop stop-opacity="1" stop-color="rgb(1.100159%, 1.100159%, 1.100159%)" offset="0.921875"/><stop stop-opacity="1" stop-color="rgb(0.848389%, 0.848389%, 0.848389%)" offset="0.941406"/><stop stop-opacity="1" stop-color="rgb(0.564575%, 0.564575%, 0.564575%)" offset="0.953125"/><stop stop-opacity="1" stop-color="rgb(0.187683%, 0.187683%, 0.187683%)" offset="0.976562"/><stop stop-opacity="1" stop-color="rgb(0%, 0%, 0%)" offset="1"/></radialGradient></defs><g clip-path="url(#2045f8638a)"><path fill="url(#a90560dbce)" d="M 0 0 L 0 2344.5 L 2344.5 2344.5 L 2344.5 0 Z M 0 0 " fill-rule="nonzero"/></g><g fill="#ffffff" fill-opacity="1"><g transform="translate(683.421828, 1756.030792)"><g><path d="M 140.125 -160.734375 C 156.601562 -181.054688 168.273438 -204.40625 175.140625 -230.78125 C 182.015625 -257.15625 185.453125 -292.328125 185.453125 -336.296875 L 185.453125 -501.140625 L 136.828125 -501.140625 C 114.847656 -501.140625 99.1875 -496.878906 89.84375 -488.359375 C 80.5 -479.847656 75.828125 -465.703125 75.828125 -445.921875 C 65.390625 -456.910156 57.421875 -470.234375 51.921875 -485.890625 C 46.429688 -501.546875 43.6875 -518.441406 43.6875 -536.578125 C 43.6875 -585.484375 52.613281 -619.414062 70.46875 -638.375 C 88.332031 -657.332031 120.066406 -666.8125 165.671875 -666.8125 L 185.453125 -666.8125 L 185.453125 -744.296875 C 185.453125 -809.679688 200.425781 -857.894531 230.375 -888.9375 C 260.320312 -919.988281 312.9375 -943.207031 388.21875 -958.59375 C 372.28125 -937.707031 361.015625 -917.507812 354.421875 -898 C 347.828125 -878.5 344.53125 -850.890625 344.53125 -815.171875 L 344.53125 -398.109375 C 344.53125 -337.117188 329.691406 -289.453125 300.015625 -255.109375 C 270.347656 -220.765625 217.050781 -189.304688 140.125 -160.734375 Z M 462.40625 -761.59375 C 479.4375 -754.457031 497.429688 -749.238281 516.390625 -745.9375 C 535.347656 -742.644531 556.914062 -741 581.09375 -741 C 604.164062 -741 625.59375 -743.332031 645.375 -748 C 665.15625 -752.664062 684.113281 -759.945312 702.25 -769.84375 L 702.25 -906.671875 C 702.25 -939.640625 695.242188 -962.988281 681.234375 -976.71875 C 667.222656 -990.457031 637.6875 -997.328125 592.625 -997.328125 L 462.40625 -997.328125 Z M 462.40625 -450.859375 C 477.238281 -456.898438 493.992188 -461.15625 512.671875 -463.625 C 531.359375 -466.101562 554.710938 -467.34375 582.734375 -467.34375 C 607.460938 -467.34375 629.304688 -465.832031 648.265625 -462.8125 C 667.222656 -459.789062 685.21875 -455.257812 702.25 -449.21875 L 702.25 -739.34375 C 678.625 -730.550781 656.78125 -724.09375 636.71875 -719.96875 C 616.664062 -715.851562 596.203125 -713.796875 575.328125 -713.796875 C 555.535156 -713.796875 536.296875 -715.582031 517.609375 -719.15625 C 498.929688 -722.726562 480.53125 -727.8125 462.40625 -734.40625 Z M 462.40625 -183.8125 C 496.46875 -183.8125 529.847656 -177.628906 562.546875 -165.265625 C 595.242188 -152.898438 628.347656 -133.800781 661.859375 -107.96875 L 702.25 -130.234375 L 702.25 -423.65625 C 685.21875 -430.800781 667.910156 -436.019531 650.328125 -439.3125 C 632.742188 -442.613281 612.410156 -444.265625 589.328125 -444.265625 C 560.753906 -444.265625 536.4375 -442.613281 516.375 -439.3125 C 496.320312 -436.019531 478.332031 -430.800781 462.40625 -423.65625 Z M 56.046875 40.390625 C 86.816406 -25.546875 135.445312 -78.019531 201.9375 -117.03125 C 268.425781 -156.050781 347.28125 -178.3125 438.5 -183.8125 L 438.5 -997.328125 L 224.1875 -997.328125 C 158.800781 -997.328125 111.820312 -1012.578125 83.25 -1043.078125 C 54.675781 -1073.578125 40.390625 -1123.171875 40.390625 -1191.859375 C 51.378906 -1185.804688 63.054688 -1181.40625 75.421875 -1178.65625 C 87.785156 -1175.914062 104.957031 -1174.546875 126.9375 -1174.546875 L 633.015625 -1174.546875 C 720.390625 -1174.546875 780.148438 -1157.644531 812.296875 -1123.84375 C 844.441406 -1090.050781 860.515625 -1032.21875 860.515625 -950.34375 L 860.515625 -238.203125 C 860.515625 -207.429688 863.257812 -182.566406 868.75 -163.609375 C 874.25 -144.648438 882.765625 -126.101562 894.296875 -107.96875 C 884.960938 -107.96875 874.800781 -108.519531 863.8125 -109.625 C 861.613281 -109.625 859.960938 -109.625 858.859375 -109.625 C 809.953125 -109.625 758.710938 -96.570312 705.140625 -70.46875 C 651.566406 -44.375 597.03125 -5.773438 541.53125 45.328125 C 500.3125 23.898438 456.757812 7.554688 410.875 -3.703125 C 365 -14.972656 318.707031 -20.609375 272 -20.609375 C 235.1875 -20.609375 199.332031 -15.660156 164.4375 -5.765625 C 129.539062 4.117188 93.410156 19.503906 56.046875 40.390625 Z M 56.046875 40.390625 "/></g></g></g></svg>